<mxfile host="app.diagrams.net" agent="Mozilla/5.0 (Windows NT 10.0; Win64; x64) AppleWebKit/537.36 (KHTML, like Gecko) Chrome/130.0.0.0 Safari/537.36" version="24.8.0">
  <diagram name="Page-1" id="K_I1f7DZ0i3DloxSLsOf">
    <mxGraphModel dx="1434" dy="780" grid="1" gridSize="10" guides="1" tooltips="1" connect="1" arrows="0" fold="1" page="1" pageScale="1" pageWidth="850" pageHeight="1100" math="0" shadow="0">
      <root>
        <mxCell id="0" />
        <mxCell id="1" parent="0" />
        <mxCell id="lSKdgI26HwF8YOr5Jo2f-4" value="" style="edgeStyle=orthogonalEdgeStyle;rounded=0;orthogonalLoop=1;jettySize=auto;html=1;" parent="1" source="lSKdgI26HwF8YOr5Jo2f-2" edge="1">
          <mxGeometry relative="1" as="geometry">
            <mxPoint x="420" y="220" as="targetPoint" />
          </mxGeometry>
        </mxCell>
        <mxCell id="lSKdgI26HwF8YOr5Jo2f-6" style="edgeStyle=orthogonalEdgeStyle;rounded=0;orthogonalLoop=1;jettySize=auto;html=1;exitX=0.75;exitY=0;exitDx=0;exitDy=0;" parent="1" source="lSKdgI26HwF8YOr5Jo2f-2" target="lSKdgI26HwF8YOr5Jo2f-7" edge="1">
          <mxGeometry relative="1" as="geometry">
            <mxPoint x="520" y="210" as="targetPoint" />
          </mxGeometry>
        </mxCell>
        <mxCell id="lSKdgI26HwF8YOr5Jo2f-8" style="edgeStyle=orthogonalEdgeStyle;rounded=0;orthogonalLoop=1;jettySize=auto;html=1;exitX=0.25;exitY=0;exitDx=0;exitDy=0;" parent="1" source="lSKdgI26HwF8YOr5Jo2f-2" target="lSKdgI26HwF8YOr5Jo2f-9" edge="1">
          <mxGeometry relative="1" as="geometry">
            <mxPoint x="320" y="220" as="targetPoint" />
          </mxGeometry>
        </mxCell>
        <mxCell id="lSKdgI26HwF8YOr5Jo2f-10" style="edgeStyle=orthogonalEdgeStyle;rounded=0;orthogonalLoop=1;jettySize=auto;html=1;exitX=0;exitY=0;exitDx=0;exitDy=0;" parent="1" source="lSKdgI26HwF8YOr5Jo2f-2" target="lSKdgI26HwF8YOr5Jo2f-11" edge="1">
          <mxGeometry relative="1" as="geometry">
            <mxPoint x="170" y="240" as="targetPoint" />
          </mxGeometry>
        </mxCell>
        <mxCell id="lSKdgI26HwF8YOr5Jo2f-12" style="edgeStyle=orthogonalEdgeStyle;rounded=0;orthogonalLoop=1;jettySize=auto;html=1;exitX=1;exitY=0;exitDx=0;exitDy=0;" parent="1" source="lSKdgI26HwF8YOr5Jo2f-2" target="lSKdgI26HwF8YOr5Jo2f-13" edge="1">
          <mxGeometry relative="1" as="geometry">
            <mxPoint x="650" y="230" as="targetPoint" />
          </mxGeometry>
        </mxCell>
        <mxCell id="lSKdgI26HwF8YOr5Jo2f-15" style="edgeStyle=orthogonalEdgeStyle;rounded=0;orthogonalLoop=1;jettySize=auto;html=1;exitX=0;exitY=0.25;exitDx=0;exitDy=0;" parent="1" source="lSKdgI26HwF8YOr5Jo2f-2" target="lSKdgI26HwF8YOr5Jo2f-16" edge="1">
          <mxGeometry relative="1" as="geometry">
            <mxPoint x="270" y="305" as="targetPoint" />
          </mxGeometry>
        </mxCell>
        <mxCell id="lSKdgI26HwF8YOr5Jo2f-17" style="edgeStyle=orthogonalEdgeStyle;rounded=0;orthogonalLoop=1;jettySize=auto;html=1;exitX=1;exitY=0.25;exitDx=0;exitDy=0;" parent="1" source="lSKdgI26HwF8YOr5Jo2f-2" target="lSKdgI26HwF8YOr5Jo2f-18" edge="1">
          <mxGeometry relative="1" as="geometry">
            <mxPoint x="560" y="305" as="targetPoint" />
          </mxGeometry>
        </mxCell>
        <mxCell id="lSKdgI26HwF8YOr5Jo2f-19" value="N" style="edgeStyle=orthogonalEdgeStyle;rounded=0;orthogonalLoop=1;jettySize=auto;html=1;exitX=0.5;exitY=1;exitDx=0;exitDy=0;entryX=0.5;entryY=0;entryDx=0;entryDy=0;" parent="1" source="lSKdgI26HwF8YOr5Jo2f-2" edge="1">
          <mxGeometry x="0.9724" y="-10" relative="1" as="geometry">
            <mxPoint x="365" y="370" as="targetPoint" />
            <Array as="points">
              <mxPoint x="420" y="370" />
            </Array>
            <mxPoint x="2510" y="70" as="offset" />
          </mxGeometry>
        </mxCell>
        <mxCell id="lSKdgI26HwF8YOr5Jo2f-26" style="edgeStyle=orthogonalEdgeStyle;rounded=0;orthogonalLoop=1;jettySize=auto;html=1;exitX=0.5;exitY=1;exitDx=0;exitDy=0;entryX=0.5;entryY=0;entryDx=0;entryDy=0;" parent="1" source="lSKdgI26HwF8YOr5Jo2f-2" target="lSKdgI26HwF8YOr5Jo2f-27" edge="1">
          <mxGeometry relative="1" as="geometry">
            <mxPoint x="480" y="370" as="targetPoint" />
            <Array as="points">
              <mxPoint x="420" y="370" />
            </Array>
          </mxGeometry>
        </mxCell>
        <mxCell id="lSKdgI26HwF8YOr5Jo2f-106" style="edgeStyle=orthogonalEdgeStyle;rounded=0;orthogonalLoop=1;jettySize=auto;html=1;exitX=0.75;exitY=1;exitDx=0;exitDy=0;" parent="1" source="lSKdgI26HwF8YOr5Jo2f-2" target="lSKdgI26HwF8YOr5Jo2f-107" edge="1">
          <mxGeometry relative="1" as="geometry">
            <mxPoint x="740" y="370" as="targetPoint" />
          </mxGeometry>
        </mxCell>
        <mxCell id="lSKdgI26HwF8YOr5Jo2f-2" value="User" style="rounded=0;whiteSpace=wrap;html=1;" parent="1" vertex="1">
          <mxGeometry x="360" y="290" width="100" height="40" as="geometry" />
        </mxCell>
        <mxCell id="lSKdgI26HwF8YOr5Jo2f-5" value="Name" style="ellipse;whiteSpace=wrap;html=1;" parent="1" vertex="1">
          <mxGeometry x="360" y="140" width="120" height="80" as="geometry" />
        </mxCell>
        <mxCell id="lSKdgI26HwF8YOr5Jo2f-7" value="Last Name" style="ellipse;whiteSpace=wrap;html=1;" parent="1" vertex="1">
          <mxGeometry x="490" y="140" width="120" height="80" as="geometry" />
        </mxCell>
        <mxCell id="lSKdgI26HwF8YOr5Jo2f-9" value="&lt;u&gt;Username&lt;/u&gt;" style="ellipse;whiteSpace=wrap;html=1;" parent="1" vertex="1">
          <mxGeometry x="230" y="140" width="120" height="80" as="geometry" />
        </mxCell>
        <mxCell id="lSKdgI26HwF8YOr5Jo2f-11" value="&lt;u&gt;E-mail&lt;/u&gt;" style="ellipse;whiteSpace=wrap;html=1;" parent="1" vertex="1">
          <mxGeometry x="100" y="150" width="120" height="80" as="geometry" />
        </mxCell>
        <mxCell id="lSKdgI26HwF8YOr5Jo2f-13" value="Date of birth" style="ellipse;whiteSpace=wrap;html=1;" parent="1" vertex="1">
          <mxGeometry x="620" y="150" width="120" height="80" as="geometry" />
        </mxCell>
        <mxCell id="lSKdgI26HwF8YOr5Jo2f-16" value="Date of registration" style="ellipse;whiteSpace=wrap;html=1;" parent="1" vertex="1">
          <mxGeometry x="170" y="265" width="120" height="80" as="geometry" />
        </mxCell>
        <mxCell id="lSKdgI26HwF8YOr5Jo2f-18" value="Gender" style="ellipse;whiteSpace=wrap;html=1;" parent="1" vertex="1">
          <mxGeometry x="580" y="265" width="90" height="70" as="geometry" />
        </mxCell>
        <mxCell id="lSKdgI26HwF8YOr5Jo2f-40" style="edgeStyle=orthogonalEdgeStyle;rounded=0;orthogonalLoop=1;jettySize=auto;html=1;exitX=0.25;exitY=1;exitDx=0;exitDy=0;" parent="1" source="lSKdgI26HwF8YOr5Jo2f-22" target="lSKdgI26HwF8YOr5Jo2f-41" edge="1">
          <mxGeometry relative="1" as="geometry">
            <mxPoint x="415" y="530" as="targetPoint" />
            <Array as="points">
              <mxPoint x="415" y="520" />
              <mxPoint x="360" y="520" />
            </Array>
          </mxGeometry>
        </mxCell>
        <mxCell id="lSKdgI26HwF8YOr5Jo2f-42" style="edgeStyle=orthogonalEdgeStyle;rounded=0;orthogonalLoop=1;jettySize=auto;html=1;exitX=0.75;exitY=1;exitDx=0;exitDy=0;entryX=0.5;entryY=0;entryDx=0;entryDy=0;" parent="1" source="lSKdgI26HwF8YOr5Jo2f-22" target="lSKdgI26HwF8YOr5Jo2f-43" edge="1">
          <mxGeometry relative="1" as="geometry">
            <mxPoint x="465.4000000000001" y="520" as="targetPoint" />
            <Array as="points">
              <mxPoint x="420" y="500" />
              <mxPoint x="420" y="530" />
              <mxPoint x="320" y="530" />
            </Array>
          </mxGeometry>
        </mxCell>
        <mxCell id="lSKdgI26HwF8YOr5Jo2f-44" style="edgeStyle=orthogonalEdgeStyle;rounded=0;orthogonalLoop=1;jettySize=auto;html=1;exitX=0.5;exitY=1;exitDx=0;exitDy=0;" parent="1" source="lSKdgI26HwF8YOr5Jo2f-22" target="lSKdgI26HwF8YOr5Jo2f-45" edge="1">
          <mxGeometry relative="1" as="geometry">
            <mxPoint x="439.79999999999995" y="600" as="targetPoint" />
          </mxGeometry>
        </mxCell>
        <mxCell id="lSKdgI26HwF8YOr5Jo2f-22" value="Tourist attraction" style="whiteSpace=wrap;html=1;align=center;" parent="1" vertex="1">
          <mxGeometry x="389.99999999999994" y="488" width="100" height="40" as="geometry" />
        </mxCell>
        <mxCell id="lSKdgI26HwF8YOr5Jo2f-23" value="N" style="text;html=1;align=center;verticalAlign=middle;resizable=0;points=[];autosize=1;strokeColor=none;fillColor=none;" parent="1" vertex="1">
          <mxGeometry x="369.8" y="345" width="30" height="30" as="geometry" />
        </mxCell>
        <mxCell id="lSKdgI26HwF8YOr5Jo2f-36" style="edgeStyle=orthogonalEdgeStyle;rounded=0;orthogonalLoop=1;jettySize=auto;html=1;exitX=1;exitY=0;exitDx=0;exitDy=0;endArrow=classic;endFill=1;" parent="1" source="lSKdgI26HwF8YOr5Jo2f-27" target="lSKdgI26HwF8YOr5Jo2f-37" edge="1">
          <mxGeometry relative="1" as="geometry">
            <mxPoint x="610" y="385" as="targetPoint" />
          </mxGeometry>
        </mxCell>
        <mxCell id="-GRv2gi1dsbZl18uX7Ie-9" style="edgeStyle=orthogonalEdgeStyle;rounded=0;orthogonalLoop=1;jettySize=auto;html=1;exitX=1;exitY=1;exitDx=0;exitDy=0;entryX=1;entryY=0.75;entryDx=0;entryDy=0;" parent="1" source="lSKdgI26HwF8YOr5Jo2f-27" target="-GRv2gi1dsbZl18uX7Ie-5" edge="1">
          <mxGeometry relative="1" as="geometry" />
        </mxCell>
        <mxCell id="otSicUevvLb5Pmgk1s81-1" style="edgeStyle=orthogonalEdgeStyle;rounded=0;orthogonalLoop=1;jettySize=auto;html=1;exitX=1;exitY=0.5;exitDx=0;exitDy=0;entryX=0;entryY=0.5;entryDx=0;entryDy=0;" edge="1" parent="1" source="lSKdgI26HwF8YOr5Jo2f-27" target="lSKdgI26HwF8YOr5Jo2f-39">
          <mxGeometry relative="1" as="geometry" />
        </mxCell>
        <mxCell id="lSKdgI26HwF8YOr5Jo2f-27" value="Shares" style="shape=rhombus;perimeter=rhombusPerimeter;whiteSpace=wrap;html=1;align=center;" parent="1" vertex="1">
          <mxGeometry x="440" y="370" width="120" height="60" as="geometry" />
        </mxCell>
        <mxCell id="-GRv2gi1dsbZl18uX7Ie-6" style="edgeStyle=orthogonalEdgeStyle;rounded=0;orthogonalLoop=1;jettySize=auto;html=1;exitX=0.5;exitY=1;exitDx=0;exitDy=0;" parent="1" source="lSKdgI26HwF8YOr5Jo2f-28" edge="1">
          <mxGeometry relative="1" as="geometry">
            <mxPoint x="370" y="430.2222222222222" as="targetPoint" />
          </mxGeometry>
        </mxCell>
        <mxCell id="-GRv2gi1dsbZl18uX7Ie-7" style="edgeStyle=orthogonalEdgeStyle;rounded=0;orthogonalLoop=1;jettySize=auto;html=1;exitX=0;exitY=1;exitDx=0;exitDy=0;entryX=0;entryY=0.75;entryDx=0;entryDy=0;" parent="1" source="lSKdgI26HwF8YOr5Jo2f-28" target="-GRv2gi1dsbZl18uX7Ie-5" edge="1">
          <mxGeometry relative="1" as="geometry" />
        </mxCell>
        <mxCell id="lSKdgI26HwF8YOr5Jo2f-28" value="Creates" style="shape=rhombus;perimeter=rhombusPerimeter;whiteSpace=wrap;html=1;align=center;" parent="1" vertex="1">
          <mxGeometry x="310" y="370" width="120" height="60" as="geometry" />
        </mxCell>
        <mxCell id="lSKdgI26HwF8YOr5Jo2f-33" value="M" style="text;html=1;align=center;verticalAlign=middle;resizable=0;points=[];autosize=1;strokeColor=none;fillColor=none;" parent="1" vertex="1">
          <mxGeometry x="365" y="425" width="30" height="30" as="geometry" />
        </mxCell>
        <mxCell id="lSKdgI26HwF8YOr5Jo2f-34" value="N" style="text;html=1;align=center;verticalAlign=middle;resizable=0;points=[];autosize=1;strokeColor=none;fillColor=none;" parent="1" vertex="1">
          <mxGeometry x="465" y="348" width="30" height="30" as="geometry" />
        </mxCell>
        <mxCell id="lSKdgI26HwF8YOr5Jo2f-35" value="M" style="text;html=1;align=center;verticalAlign=middle;resizable=0;points=[];autosize=1;strokeColor=none;fillColor=none;" parent="1" vertex="1">
          <mxGeometry x="465" y="425" width="30" height="30" as="geometry" />
        </mxCell>
        <mxCell id="lSKdgI26HwF8YOr5Jo2f-37" value="Date of share" style="ellipse;whiteSpace=wrap;html=1;align=center;" parent="1" vertex="1">
          <mxGeometry x="590" y="365" width="100" height="40" as="geometry" />
        </mxCell>
        <mxCell id="lSKdgI26HwF8YOr5Jo2f-39" value="Comment" style="ellipse;whiteSpace=wrap;html=1;align=center;" parent="1" vertex="1">
          <mxGeometry x="600" y="415" width="100" height="40" as="geometry" />
        </mxCell>
        <mxCell id="lSKdgI26HwF8YOr5Jo2f-41" value="Name" style="ellipse;whiteSpace=wrap;html=1;align=center;fontStyle=4;" parent="1" vertex="1">
          <mxGeometry x="180" y="500" width="100" height="40" as="geometry" />
        </mxCell>
        <mxCell id="lSKdgI26HwF8YOr5Jo2f-43" value="Date of creation" style="ellipse;whiteSpace=wrap;html=1;align=center;" parent="1" vertex="1">
          <mxGeometry x="269.8" y="569.8" width="100" height="40" as="geometry" />
        </mxCell>
        <mxCell id="lSKdgI26HwF8YOr5Jo2f-46" style="edgeStyle=orthogonalEdgeStyle;rounded=0;orthogonalLoop=1;jettySize=auto;html=1;exitX=0;exitY=1;exitDx=0;exitDy=0;" parent="1" source="lSKdgI26HwF8YOr5Jo2f-45" target="lSKdgI26HwF8YOr5Jo2f-47" edge="1">
          <mxGeometry relative="1" as="geometry">
            <mxPoint x="360" y="650" as="targetPoint" />
          </mxGeometry>
        </mxCell>
        <mxCell id="lSKdgI26HwF8YOr5Jo2f-48" style="edgeStyle=orthogonalEdgeStyle;rounded=0;orthogonalLoop=1;jettySize=auto;html=1;exitX=1;exitY=1;exitDx=0;exitDy=0;" parent="1" source="lSKdgI26HwF8YOr5Jo2f-45" target="lSKdgI26HwF8YOr5Jo2f-49" edge="1">
          <mxGeometry relative="1" as="geometry">
            <mxPoint x="540" y="630" as="targetPoint" />
          </mxGeometry>
        </mxCell>
        <mxCell id="lSKdgI26HwF8YOr5Jo2f-45" value="d" style="ellipse;whiteSpace=wrap;html=1;aspect=fixed;" parent="1" vertex="1">
          <mxGeometry x="415.2" y="560" width="49.8" height="49.8" as="geometry" />
        </mxCell>
        <mxCell id="lSKdgI26HwF8YOr5Jo2f-50" style="edgeStyle=orthogonalEdgeStyle;rounded=0;orthogonalLoop=1;jettySize=auto;html=1;exitX=0.25;exitY=1;exitDx=0;exitDy=0;" parent="1" source="lSKdgI26HwF8YOr5Jo2f-47" target="lSKdgI26HwF8YOr5Jo2f-51" edge="1">
          <mxGeometry relative="1" as="geometry">
            <mxPoint x="230" y="710" as="targetPoint" />
          </mxGeometry>
        </mxCell>
        <mxCell id="lSKdgI26HwF8YOr5Jo2f-52" style="edgeStyle=orthogonalEdgeStyle;rounded=0;orthogonalLoop=1;jettySize=auto;html=1;exitX=0.5;exitY=1;exitDx=0;exitDy=0;" parent="1" source="lSKdgI26HwF8YOr5Jo2f-47" target="lSKdgI26HwF8YOr5Jo2f-53" edge="1">
          <mxGeometry relative="1" as="geometry">
            <mxPoint x="359.79999999999995" y="700" as="targetPoint" />
          </mxGeometry>
        </mxCell>
        <mxCell id="lSKdgI26HwF8YOr5Jo2f-54" style="edgeStyle=orthogonalEdgeStyle;rounded=0;orthogonalLoop=1;jettySize=auto;html=1;exitX=0.75;exitY=1;exitDx=0;exitDy=0;" parent="1" source="lSKdgI26HwF8YOr5Jo2f-47" target="lSKdgI26HwF8YOr5Jo2f-55" edge="1">
          <mxGeometry relative="1" as="geometry">
            <mxPoint x="440" y="730" as="targetPoint" />
          </mxGeometry>
        </mxCell>
        <mxCell id="lSKdgI26HwF8YOr5Jo2f-47" value="Building" style="whiteSpace=wrap;html=1;align=center;" parent="1" vertex="1">
          <mxGeometry x="310" y="630" width="100" height="40" as="geometry" />
        </mxCell>
        <mxCell id="lSKdgI26HwF8YOr5Jo2f-60" style="edgeStyle=orthogonalEdgeStyle;rounded=0;orthogonalLoop=1;jettySize=auto;html=1;exitX=0;exitY=0.5;exitDx=0;exitDy=0;" parent="1" source="lSKdgI26HwF8YOr5Jo2f-49" target="lSKdgI26HwF8YOr5Jo2f-61" edge="1">
          <mxGeometry relative="1" as="geometry">
            <mxPoint x="550" y="649.8" as="targetPoint" />
          </mxGeometry>
        </mxCell>
        <mxCell id="lSKdgI26HwF8YOr5Jo2f-63" style="edgeStyle=orthogonalEdgeStyle;rounded=0;orthogonalLoop=1;jettySize=auto;html=1;exitX=0;exitY=1;exitDx=0;exitDy=0;" parent="1" source="lSKdgI26HwF8YOr5Jo2f-49" target="lSKdgI26HwF8YOr5Jo2f-64" edge="1">
          <mxGeometry relative="1" as="geometry">
            <mxPoint x="570" y="720" as="targetPoint" />
          </mxGeometry>
        </mxCell>
        <mxCell id="lSKdgI26HwF8YOr5Jo2f-65" style="edgeStyle=orthogonalEdgeStyle;rounded=0;orthogonalLoop=1;jettySize=auto;html=1;exitX=0.5;exitY=1;exitDx=0;exitDy=0;" parent="1" source="lSKdgI26HwF8YOr5Jo2f-49" target="lSKdgI26HwF8YOr5Jo2f-66" edge="1">
          <mxGeometry relative="1" as="geometry">
            <mxPoint x="650" y="710" as="targetPoint" />
          </mxGeometry>
        </mxCell>
        <mxCell id="lSKdgI26HwF8YOr5Jo2f-67" style="edgeStyle=orthogonalEdgeStyle;rounded=0;orthogonalLoop=1;jettySize=auto;html=1;exitX=1;exitY=0.5;exitDx=0;exitDy=0;" parent="1" source="lSKdgI26HwF8YOr5Jo2f-49" target="lSKdgI26HwF8YOr5Jo2f-68" edge="1">
          <mxGeometry relative="1" as="geometry">
            <mxPoint x="760" y="649.8" as="targetPoint" />
          </mxGeometry>
        </mxCell>
        <mxCell id="lSKdgI26HwF8YOr5Jo2f-49" value="City" style="whiteSpace=wrap;html=1;align=center;" parent="1" vertex="1">
          <mxGeometry x="590" y="630" width="100" height="40" as="geometry" />
        </mxCell>
        <mxCell id="lSKdgI26HwF8YOr5Jo2f-51" value="Name" style="whiteSpace=wrap;html=1;align=center;" parent="1" vertex="1">
          <mxGeometry x="180" y="710" width="100" height="40" as="geometry" />
        </mxCell>
        <mxCell id="lSKdgI26HwF8YOr5Jo2f-53" value="&lt;u&gt;Address&lt;/u&gt;" style="whiteSpace=wrap;html=1;align=center;" parent="1" vertex="1">
          <mxGeometry x="289.99999999999994" y="710" width="100" height="40" as="geometry" />
        </mxCell>
        <mxCell id="lSKdgI26HwF8YOr5Jo2f-56" style="edgeStyle=orthogonalEdgeStyle;rounded=0;orthogonalLoop=1;jettySize=auto;html=1;exitX=0.25;exitY=1;exitDx=0;exitDy=0;" parent="1" source="lSKdgI26HwF8YOr5Jo2f-55" target="lSKdgI26HwF8YOr5Jo2f-57" edge="1">
          <mxGeometry relative="1" as="geometry">
            <mxPoint x="380" y="790" as="targetPoint" />
          </mxGeometry>
        </mxCell>
        <mxCell id="lSKdgI26HwF8YOr5Jo2f-58" style="edgeStyle=orthogonalEdgeStyle;rounded=0;orthogonalLoop=1;jettySize=auto;html=1;exitX=0.75;exitY=1;exitDx=0;exitDy=0;" parent="1" source="lSKdgI26HwF8YOr5Jo2f-55" target="lSKdgI26HwF8YOr5Jo2f-59" edge="1">
          <mxGeometry relative="1" as="geometry">
            <mxPoint x="490" y="790" as="targetPoint" />
          </mxGeometry>
        </mxCell>
        <mxCell id="lSKdgI26HwF8YOr5Jo2f-55" value="&lt;u&gt;Geo location&lt;/u&gt;" style="whiteSpace=wrap;html=1;align=center;" parent="1" vertex="1">
          <mxGeometry x="395" y="710" width="100" height="40" as="geometry" />
        </mxCell>
        <mxCell id="lSKdgI26HwF8YOr5Jo2f-57" value="Width" style="whiteSpace=wrap;html=1;align=center;" parent="1" vertex="1">
          <mxGeometry x="330" y="780" width="100" height="40" as="geometry" />
        </mxCell>
        <mxCell id="lSKdgI26HwF8YOr5Jo2f-59" value="Length" style="whiteSpace=wrap;html=1;align=center;" parent="1" vertex="1">
          <mxGeometry x="440" y="780" width="100" height="40" as="geometry" />
        </mxCell>
        <mxCell id="lSKdgI26HwF8YOr5Jo2f-62" style="edgeStyle=orthogonalEdgeStyle;rounded=0;orthogonalLoop=1;jettySize=auto;html=1;exitX=0;exitY=0.5;exitDx=0;exitDy=0;entryX=1;entryY=0.5;entryDx=0;entryDy=0;" parent="1" source="lSKdgI26HwF8YOr5Jo2f-61" target="lSKdgI26HwF8YOr5Jo2f-47" edge="1">
          <mxGeometry relative="1" as="geometry" />
        </mxCell>
        <mxCell id="lSKdgI26HwF8YOr5Jo2f-61" value="Contains" style="shape=rhombus;double=1;perimeter=rhombusPerimeter;whiteSpace=wrap;html=1;align=center;" parent="1" vertex="1">
          <mxGeometry x="440" y="620" width="120" height="60" as="geometry" />
        </mxCell>
        <mxCell id="lSKdgI26HwF8YOr5Jo2f-64" value="Name" style="ellipse;whiteSpace=wrap;html=1;align=center;" parent="1" vertex="1">
          <mxGeometry x="520" y="700" width="100" height="40" as="geometry" />
        </mxCell>
        <mxCell id="lSKdgI26HwF8YOr5Jo2f-66" value="Country" style="ellipse;whiteSpace=wrap;html=1;align=center;" parent="1" vertex="1">
          <mxGeometry x="630" y="700" width="100" height="40" as="geometry" />
        </mxCell>
        <mxCell id="lSKdgI26HwF8YOr5Jo2f-69" style="edgeStyle=orthogonalEdgeStyle;rounded=0;orthogonalLoop=1;jettySize=auto;html=1;exitX=0.5;exitY=0;exitDx=0;exitDy=0;" parent="1" source="lSKdgI26HwF8YOr5Jo2f-68" target="lSKdgI26HwF8YOr5Jo2f-70" edge="1">
          <mxGeometry relative="1" as="geometry">
            <mxPoint x="790" y="590" as="targetPoint" />
          </mxGeometry>
        </mxCell>
        <mxCell id="lSKdgI26HwF8YOr5Jo2f-68" value="Neighbour cities" style="ellipse;shape=doubleEllipse;margin=3;whiteSpace=wrap;html=1;align=center;" parent="1" vertex="1">
          <mxGeometry x="760" y="650" width="100" height="40" as="geometry" />
        </mxCell>
        <mxCell id="lSKdgI26HwF8YOr5Jo2f-70" value="Distance" style="ellipse;whiteSpace=wrap;html=1;align=center;" parent="1" vertex="1">
          <mxGeometry x="895" y="609.8" width="100" height="40" as="geometry" />
        </mxCell>
        <mxCell id="lSKdgI26HwF8YOr5Jo2f-71" value="1" style="text;html=1;align=center;verticalAlign=middle;resizable=0;points=[];autosize=1;strokeColor=none;fillColor=none;" parent="1" vertex="1">
          <mxGeometry x="555" y="628" width="30" height="30" as="geometry" />
        </mxCell>
        <mxCell id="lSKdgI26HwF8YOr5Jo2f-72" value="N" style="text;html=1;align=center;verticalAlign=middle;resizable=0;points=[];autosize=1;strokeColor=none;fillColor=none;" parent="1" vertex="1">
          <mxGeometry x="410" y="628" width="30" height="30" as="geometry" />
        </mxCell>
        <mxCell id="lSKdgI26HwF8YOr5Jo2f-86" style="edgeStyle=orthogonalEdgeStyle;rounded=0;orthogonalLoop=1;jettySize=auto;html=1;exitX=0.25;exitY=0;exitDx=0;exitDy=0;" parent="1" source="lSKdgI26HwF8YOr5Jo2f-76" target="lSKdgI26HwF8YOr5Jo2f-87" edge="1">
          <mxGeometry relative="1" as="geometry">
            <mxPoint x="750" y="400" as="targetPoint" />
          </mxGeometry>
        </mxCell>
        <mxCell id="lSKdgI26HwF8YOr5Jo2f-88" style="edgeStyle=orthogonalEdgeStyle;rounded=0;orthogonalLoop=1;jettySize=auto;html=1;exitX=0.75;exitY=0;exitDx=0;exitDy=0;" parent="1" source="lSKdgI26HwF8YOr5Jo2f-76" target="lSKdgI26HwF8YOr5Jo2f-89" edge="1">
          <mxGeometry relative="1" as="geometry">
            <mxPoint x="870" y="400" as="targetPoint" />
          </mxGeometry>
        </mxCell>
        <mxCell id="lSKdgI26HwF8YOr5Jo2f-90" style="edgeStyle=orthogonalEdgeStyle;rounded=0;orthogonalLoop=1;jettySize=auto;html=1;exitX=0.5;exitY=1;exitDx=0;exitDy=0;" parent="1" source="lSKdgI26HwF8YOr5Jo2f-76" target="lSKdgI26HwF8YOr5Jo2f-91" edge="1">
          <mxGeometry relative="1" as="geometry">
            <mxPoint x="840" y="450" as="targetPoint" />
          </mxGeometry>
        </mxCell>
        <mxCell id="lSKdgI26HwF8YOr5Jo2f-76" value="Agency" style="whiteSpace=wrap;html=1;align=center;" parent="1" vertex="1">
          <mxGeometry x="850" y="348" width="100" height="40" as="geometry" />
        </mxCell>
        <mxCell id="lSKdgI26HwF8YOr5Jo2f-87" value="&lt;u&gt;Name&lt;/u&gt;" style="ellipse;whiteSpace=wrap;html=1;align=center;" parent="1" vertex="1">
          <mxGeometry x="770" y="250" width="100" height="40" as="geometry" />
        </mxCell>
        <mxCell id="lSKdgI26HwF8YOr5Jo2f-89" value="Location" style="ellipse;whiteSpace=wrap;html=1;align=center;" parent="1" vertex="1">
          <mxGeometry x="940" y="250" width="100" height="40" as="geometry" />
        </mxCell>
        <mxCell id="lSKdgI26HwF8YOr5Jo2f-92" style="edgeStyle=orthogonalEdgeStyle;rounded=0;orthogonalLoop=1;jettySize=auto;html=1;exitX=0.5;exitY=1;exitDx=0;exitDy=0;" parent="1" source="lSKdgI26HwF8YOr5Jo2f-91" target="lSKdgI26HwF8YOr5Jo2f-93" edge="1">
          <mxGeometry relative="1" as="geometry">
            <mxPoint x="840" y="510" as="targetPoint" />
          </mxGeometry>
        </mxCell>
        <mxCell id="lSKdgI26HwF8YOr5Jo2f-91" value="Organize" style="shape=rhombus;perimeter=rhombusPerimeter;whiteSpace=wrap;html=1;align=center;" parent="1" vertex="1">
          <mxGeometry x="805" y="430" width="80" height="40" as="geometry" />
        </mxCell>
        <mxCell id="lSKdgI26HwF8YOr5Jo2f-94" style="edgeStyle=orthogonalEdgeStyle;rounded=0;orthogonalLoop=1;jettySize=auto;html=1;exitX=0;exitY=0.5;exitDx=0;exitDy=0;" parent="1" source="lSKdgI26HwF8YOr5Jo2f-93" target="lSKdgI26HwF8YOr5Jo2f-95" edge="1">
          <mxGeometry relative="1" as="geometry">
            <mxPoint x="670" y="519.6666666666667" as="targetPoint" />
          </mxGeometry>
        </mxCell>
        <mxCell id="lSKdgI26HwF8YOr5Jo2f-99" style="edgeStyle=orthogonalEdgeStyle;rounded=0;orthogonalLoop=1;jettySize=auto;html=1;exitX=1;exitY=0;exitDx=0;exitDy=0;" parent="1" source="lSKdgI26HwF8YOr5Jo2f-93" target="lSKdgI26HwF8YOr5Jo2f-100" edge="1">
          <mxGeometry relative="1" as="geometry">
            <mxPoint x="960" y="460" as="targetPoint" />
          </mxGeometry>
        </mxCell>
        <mxCell id="lSKdgI26HwF8YOr5Jo2f-101" style="edgeStyle=orthogonalEdgeStyle;rounded=0;orthogonalLoop=1;jettySize=auto;html=1;exitX=1;exitY=0.25;exitDx=0;exitDy=0;" parent="1" source="lSKdgI26HwF8YOr5Jo2f-93" target="lSKdgI26HwF8YOr5Jo2f-102" edge="1">
          <mxGeometry relative="1" as="geometry">
            <mxPoint x="940" y="509.66666666666674" as="targetPoint" />
          </mxGeometry>
        </mxCell>
        <mxCell id="lSKdgI26HwF8YOr5Jo2f-103" style="edgeStyle=orthogonalEdgeStyle;rounded=0;orthogonalLoop=1;jettySize=auto;html=1;exitX=1;exitY=1;exitDx=0;exitDy=0;" parent="1" source="lSKdgI26HwF8YOr5Jo2f-93" target="lSKdgI26HwF8YOr5Jo2f-105" edge="1">
          <mxGeometry relative="1" as="geometry">
            <mxPoint x="1030" y="580" as="targetPoint" />
          </mxGeometry>
        </mxCell>
        <mxCell id="lSKdgI26HwF8YOr5Jo2f-93" value="Tour" style="whiteSpace=wrap;html=1;align=center;" parent="1" vertex="1">
          <mxGeometry x="800" y="500" width="90" height="40" as="geometry" />
        </mxCell>
        <mxCell id="lSKdgI26HwF8YOr5Jo2f-96" style="edgeStyle=orthogonalEdgeStyle;rounded=0;orthogonalLoop=1;jettySize=auto;html=1;exitX=0;exitY=0.5;exitDx=0;exitDy=0;entryX=0.75;entryY=1;entryDx=0;entryDy=0;" parent="1" source="lSKdgI26HwF8YOr5Jo2f-95" target="lSKdgI26HwF8YOr5Jo2f-22" edge="1">
          <mxGeometry relative="1" as="geometry" />
        </mxCell>
        <mxCell id="lSKdgI26HwF8YOr5Jo2f-95" value="Included" style="shape=rhombus;perimeter=rhombusPerimeter;whiteSpace=wrap;html=1;align=center;" parent="1" vertex="1">
          <mxGeometry x="600" y="499.9966666666667" width="120" height="60" as="geometry" />
        </mxCell>
        <mxCell id="lSKdgI26HwF8YOr5Jo2f-97" value="1" style="text;html=1;align=center;verticalAlign=middle;resizable=0;points=[];autosize=1;strokeColor=none;fillColor=none;" parent="1" vertex="1">
          <mxGeometry x="720" y="500" width="30" height="30" as="geometry" />
        </mxCell>
        <mxCell id="lSKdgI26HwF8YOr5Jo2f-98" value="N" style="text;html=1;align=center;verticalAlign=middle;resizable=0;points=[];autosize=1;strokeColor=none;fillColor=none;" parent="1" vertex="1">
          <mxGeometry x="465" y="520" width="30" height="30" as="geometry" />
        </mxCell>
        <mxCell id="lSKdgI26HwF8YOr5Jo2f-100" value="Start_date" style="ellipse;whiteSpace=wrap;html=1;align=center;" parent="1" vertex="1">
          <mxGeometry x="910" y="420" width="100" height="40" as="geometry" />
        </mxCell>
        <mxCell id="lSKdgI26HwF8YOr5Jo2f-102" value="End_date" style="ellipse;whiteSpace=wrap;html=1;align=center;" parent="1" vertex="1">
          <mxGeometry x="990" y="489.9966666666667" width="100" height="40" as="geometry" />
        </mxCell>
        <mxCell id="lSKdgI26HwF8YOr5Jo2f-105" value="Price" style="ellipse;whiteSpace=wrap;html=1;align=center;" parent="1" vertex="1">
          <mxGeometry x="1020" y="580" width="100" height="40" as="geometry" />
        </mxCell>
        <mxCell id="lSKdgI26HwF8YOr5Jo2f-108" style="edgeStyle=orthogonalEdgeStyle;rounded=0;orthogonalLoop=1;jettySize=auto;html=1;exitX=0.5;exitY=1;exitDx=0;exitDy=0;entryX=0;entryY=0.25;entryDx=0;entryDy=0;" parent="1" source="lSKdgI26HwF8YOr5Jo2f-107" target="lSKdgI26HwF8YOr5Jo2f-93" edge="1">
          <mxGeometry relative="1" as="geometry" />
        </mxCell>
        <mxCell id="lSKdgI26HwF8YOr5Jo2f-107" value="Did_go" style="shape=rhombus;double=1;perimeter=rhombusPerimeter;whiteSpace=wrap;html=1;align=center;" parent="1" vertex="1">
          <mxGeometry x="720" y="370" width="100" height="50" as="geometry" />
        </mxCell>
        <mxCell id="-GRv2gi1dsbZl18uX7Ie-1" value="N" style="text;html=1;align=center;verticalAlign=middle;resizable=0;points=[];autosize=1;strokeColor=none;fillColor=none;" parent="1" vertex="1">
          <mxGeometry x="765" y="348" width="30" height="30" as="geometry" />
        </mxCell>
        <mxCell id="-GRv2gi1dsbZl18uX7Ie-2" value="1" style="text;html=1;align=center;verticalAlign=middle;resizable=0;points=[];autosize=1;strokeColor=none;fillColor=none;" parent="1" vertex="1">
          <mxGeometry x="765" y="478" width="30" height="30" as="geometry" />
        </mxCell>
        <mxCell id="-GRv2gi1dsbZl18uX7Ie-3" value="N" style="text;html=1;align=center;verticalAlign=middle;resizable=0;points=[];autosize=1;strokeColor=none;fillColor=none;" parent="1" vertex="1">
          <mxGeometry x="845" y="408" width="30" height="30" as="geometry" />
        </mxCell>
        <mxCell id="-GRv2gi1dsbZl18uX7Ie-4" value="M" style="text;html=1;align=center;verticalAlign=middle;resizable=0;points=[];autosize=1;strokeColor=none;fillColor=none;" parent="1" vertex="1">
          <mxGeometry x="845" y="468" width="30" height="30" as="geometry" />
        </mxCell>
        <mxCell id="-GRv2gi1dsbZl18uX7Ie-5" value="List" style="whiteSpace=wrap;html=1;" parent="1" vertex="1">
          <mxGeometry x="390" y="425" width="80" height="30" as="geometry" />
        </mxCell>
        <mxCell id="-GRv2gi1dsbZl18uX7Ie-14" style="edgeStyle=orthogonalEdgeStyle;rounded=0;orthogonalLoop=1;jettySize=auto;html=1;exitX=1;exitY=1;exitDx=0;exitDy=0;entryX=0;entryY=0.5;entryDx=0;entryDy=0;" parent="1" source="-GRv2gi1dsbZl18uX7Ie-11" target="lSKdgI26HwF8YOr5Jo2f-22" edge="1">
          <mxGeometry relative="1" as="geometry" />
        </mxCell>
        <mxCell id="-GRv2gi1dsbZl18uX7Ie-11" value="Included" style="shape=rhombus;double=1;perimeter=rhombusPerimeter;whiteSpace=wrap;html=1;align=center;" parent="1" vertex="1">
          <mxGeometry x="280" y="457" width="100" height="52" as="geometry" />
        </mxCell>
        <mxCell id="-GRv2gi1dsbZl18uX7Ie-13" style="edgeStyle=orthogonalEdgeStyle;rounded=0;orthogonalLoop=1;jettySize=auto;html=1;exitX=0.25;exitY=1;exitDx=0;exitDy=0;entryX=0.902;entryY=0.421;entryDx=0;entryDy=0;entryPerimeter=0;" parent="1" source="-GRv2gi1dsbZl18uX7Ie-5" target="-GRv2gi1dsbZl18uX7Ie-11" edge="1">
          <mxGeometry relative="1" as="geometry" />
        </mxCell>
        <mxCell id="-GRv2gi1dsbZl18uX7Ie-15" value="N" style="text;html=1;align=center;verticalAlign=middle;resizable=0;points=[];autosize=1;strokeColor=none;fillColor=none;" parent="1" vertex="1">
          <mxGeometry x="355" y="448" width="30" height="30" as="geometry" />
        </mxCell>
        <mxCell id="-GRv2gi1dsbZl18uX7Ie-16" value="1" style="text;html=1;align=center;verticalAlign=middle;resizable=0;points=[];autosize=1;strokeColor=none;fillColor=none;" parent="1" vertex="1">
          <mxGeometry x="360" y="495" width="30" height="30" as="geometry" />
        </mxCell>
      </root>
    </mxGraphModel>
  </diagram>
</mxfile>
